<svg width="128" height="32" viewBox="0 0 68 11" fill="none" xmlns="http://www.w3.org/2000/svg">
<path d="M0.24 8.032H0.84V2.632H0.24V0.663999H5.508C6.54 0.663999 7.328 0.887999 7.872 1.336C8.416 1.776 8.688 2.492 8.688 3.484C8.688 4.476 8.416 5.196 7.872 5.644C7.328 6.084 6.54 6.304 5.508 6.304H4.2V8.032H5.352V10H0.24V8.032ZM4.608 4.6C5.072 4.6 5.304 4.344 5.304 3.832V3.4C5.304 3.136 5.244 2.944 5.124 2.824C5.012 2.696 4.84 2.632 4.608 2.632H4.2V4.6H4.608ZM14.1994 3.16C14.3594 3.16 14.5114 3.176 14.6554 3.208C14.7994 3.24 14.9194 3.28 15.0154 3.328V5.62C14.6874 5.484 14.3354 5.416 13.9594 5.416C13.4554 5.416 13.0674 5.548 12.7954 5.812C12.5234 6.076 12.3874 6.468 12.3874 6.988V8.032H13.4674V10H9.09938V8.032H9.62738V5.296H9.09938V3.328H12.3874V4.204C12.6114 3.868 12.8674 3.612 13.1554 3.436C13.4434 3.252 13.7914 3.16 14.1994 3.16ZM18.9795 10.168C17.8435 10.168 16.9555 9.872 16.3155 9.28C15.6755 8.68 15.3555 7.808 15.3555 6.664C15.3555 5.52 15.6755 4.652 16.3155 4.06C16.9555 3.46 17.8435 3.16 18.9795 3.16C20.1075 3.16 20.9195 3.456 21.4155 4.048C21.9195 4.632 22.1715 5.36 22.1715 6.232V7.096H18.2835V7.168C18.2835 7.464 18.3715 7.684 18.5475 7.828C18.7235 7.964 19.0155 8.032 19.4235 8.032C19.9115 8.032 20.3755 7.996 20.8155 7.924C21.2555 7.852 21.6395 7.76 21.9675 7.648V9.568C21.6875 9.72 21.2755 9.86 20.7315 9.988C20.1955 10.108 19.6115 10.168 18.9795 10.168ZM19.6755 5.776V5.632C19.6755 5.36 19.6155 5.164 19.4955 5.044C19.3835 4.924 19.2115 4.864 18.9795 4.864C18.7475 4.864 18.5715 4.928 18.4515 5.056C18.3395 5.176 18.2835 5.368 18.2835 5.632V5.776H19.6755ZM25.4445 10.168C24.4365 10.168 23.4645 10.008 22.5285 9.688V7.912H24.4725V8.032C24.4725 8.416 24.7165 8.608 25.2045 8.608C25.6365 8.608 25.8525 8.46 25.8525 8.164C25.8525 8.004 25.7885 7.884 25.6605 7.804C25.5405 7.724 25.3245 7.656 25.0125 7.6L24.4125 7.492C23.1565 7.268 22.5285 6.556 22.5285 5.356C22.5285 4.66 22.7925 4.12 23.3205 3.736C23.8485 3.352 24.5605 3.16 25.4565 3.16C26.4565 3.16 27.3005 3.328 27.9885 3.664V5.332H26.1645V5.212C26.1645 5.052 26.1085 4.932 25.9965 4.852C25.8925 4.764 25.7365 4.72 25.5285 4.72C25.1285 4.72 24.9285 4.848 24.9285 5.104C24.9285 5.24 24.9845 5.344 25.0965 5.416C25.2085 5.488 25.4125 5.556 25.7085 5.62L26.3925 5.752C27.1045 5.888 27.6125 6.14 27.9165 6.508C28.2205 6.876 28.3725 7.348 28.3725 7.924C28.3725 8.652 28.1165 9.208 27.6045 9.592C27.1005 9.976 26.3805 10.168 25.4445 10.168ZM29.3272 2.668V0.663999H31.7752V2.668H29.3272ZM28.7512 10V8.032H29.2792V5.296H28.7512V3.328H32.0392V8.032H32.5672V10H28.7512ZM35.2636 10.168C34.4476 10.168 33.8316 9.864 33.4156 9.256C33.0076 8.648 32.8036 7.784 32.8036 6.664C32.8036 5.544 33.0076 4.68 33.4156 4.072C33.8316 3.464 34.4476 3.16 35.2636 3.16C35.6716 3.16 36.0316 3.26 36.3436 3.46C36.6636 3.66 36.9236 3.888 37.1236 4.144V2.632H36.4156V0.663999H39.8836V8.032H40.4116V10H37.1236V9.184C36.9236 9.44 36.6636 9.668 36.3436 9.868C36.0316 10.068 35.6716 10.168 35.2636 10.168ZM36.4276 8.032C36.6596 8.032 36.8316 7.972 36.9436 7.852C37.0636 7.724 37.1236 7.528 37.1236 7.264V6.064C37.1236 5.8 37.0636 5.608 36.9436 5.488C36.8316 5.36 36.6596 5.296 36.4276 5.296C36.1956 5.296 36.0196 5.36 35.8996 5.488C35.7876 5.608 35.7316 5.8 35.7316 6.064V7.264C35.7316 7.528 35.7876 7.724 35.8996 7.852C36.0196 7.972 36.1956 8.032 36.4276 8.032ZM44.374 10.168C43.238 10.168 42.35 9.872 41.71 9.28C41.07 8.68 40.75 7.808 40.75 6.664C40.75 5.52 41.07 4.652 41.71 4.06C42.35 3.46 43.238 3.16 44.374 3.16C45.502 3.16 46.314 3.456 46.81 4.048C47.314 4.632 47.566 5.36 47.566 6.232V7.096H43.678V7.168C43.678 7.464 43.766 7.684 43.942 7.828C44.118 7.964 44.41 8.032 44.818 8.032C45.306 8.032 45.77 7.996 46.21 7.924C46.65 7.852 47.034 7.76 47.362 7.648V9.568C47.082 9.72 46.67 9.86 46.126 9.988C45.59 10.108 45.006 10.168 44.374 10.168ZM45.07 5.776V5.632C45.07 5.36 45.01 5.164 44.89 5.044C44.778 4.924 44.606 4.864 44.374 4.864C44.142 4.864 43.966 4.928 43.846 5.056C43.734 5.176 43.678 5.368 43.678 5.632V5.776H45.07ZM55.891 8.032V10H52.099V8.032H52.603V6.064C52.603 5.8 52.547 5.608 52.435 5.488C52.323 5.36 52.155 5.296 51.931 5.296C51.451 5.296 51.211 5.552 51.211 6.064V8.032H51.715V10H47.923V8.032H48.451V5.296H47.923V3.328H51.211V4.264C51.787 3.528 52.507 3.16 53.371 3.16C54.035 3.16 54.531 3.368 54.859 3.784C55.195 4.2 55.363 4.772 55.363 5.5V8.032H55.891ZM59.2425 10.168C58.3945 10.168 57.7545 9.964 57.3225 9.556C56.8985 9.14 56.6865 8.444 56.6865 7.468V5.296H56.1585V3.328C56.4625 3.328 56.6905 3.252 56.8425 3.1C56.9945 2.94 57.0705 2.724 57.0705 2.452V1.912H59.6145V3.328H61.2345V5.296H59.6145V7.264C59.6145 7.528 59.6705 7.724 59.7825 7.852C59.9025 7.972 60.0785 8.032 60.3105 8.032C60.6145 8.032 60.9465 7.996 61.3065 7.924V9.808C61.0825 9.896 60.7785 9.976 60.3945 10.048C60.0185 10.128 59.6345 10.168 59.2425 10.168ZM64.6086 10.168C63.6006 10.168 62.6286 10.008 61.6926 9.688V7.912H63.6366V8.032C63.6366 8.416 63.8806 8.608 64.3686 8.608C64.8006 8.608 65.0166 8.46 65.0166 8.164C65.0166 8.004 64.9526 7.884 64.8246 7.804C64.7046 7.724 64.4886 7.656 64.1766 7.6L63.5766 7.492C62.3206 7.268 61.6926 6.556 61.6926 5.356C61.6926 4.66 61.9566 4.12 62.4846 3.736C63.0126 3.352 63.7246 3.16 64.6206 3.16C65.6206 3.16 66.4646 3.328 67.1526 3.664V5.332H65.3286V5.212C65.3286 5.052 65.2726 4.932 65.1606 4.852C65.0566 4.764 64.9006 4.72 64.6926 4.72C64.2926 4.72 64.0926 4.848 64.0926 5.104C64.0926 5.24 64.1486 5.344 64.2606 5.416C64.3726 5.488 64.5766 5.556 64.8726 5.62L65.5566 5.752C66.2686 5.888 66.7766 6.14 67.0806 6.508C67.3846 6.876 67.5366 7.348 67.5366 7.924C67.5366 8.652 67.2806 9.208 66.7686 9.592C66.2646 9.976 65.5446 10.168 64.6086 10.168Z" fill="black"/>
</svg>
